<?xml version="1.0" standalone="no"?>
<!DOCTYPE svg PUBLIC "-//W3C//DTD SVG 20010904//EN"
 "http://www.w3.org/TR/2001/REC-SVG-20010904/DTD/svg10.dtd">
<svg version="1.0" xmlns="http://www.w3.org/2000/svg"
 width="1024.000000pt" height="796.000000pt" viewBox="0 0 1024.000000 796.000000"
 preserveAspectRatio="xMidYMid meet">

<g transform="translate(0.000000,796.000000) scale(0.100000,-0.100000)"
fill="#000000" stroke="none">
<path d="M4825 7144 c-453 -46 -870 -171 -1254 -377 -880 -471 -1502 -1341
-1661 -2322 -50 -315 -53 -660 -6 -977 118 -797 514 -1505 1131 -2022 465
-389 978 -617 1615 -718 129 -20 179 -23 455 -23 272 1 327 3 449 23 722 116
1301 399 1800 882 379 366 646 786 814 1280 126 369 179 713 169 1090 -14 525
-121 953 -352 1409 -469 928 -1366 1573 -2410 1732 -113 17 -194 22 -425 24
-157 2 -303 1 -325 -1z m655 -100 c1033 -122 1940 -746 2418 -1664 188 -361
301 -740 342 -1145 15 -143 15 -470 1 -610 -46 -440 -184 -880 -391 -1243
-255 -448 -651 -860 -1085 -1127 -101 -62 -323 -179 -420 -220 -202 -86 -477
-166 -695 -204 -347 -60 -775 -60 -1093 0 -414 78 -773 216 -1119 430 -231
144 -400 282 -609 495 -452 464 -732 1036 -841 1720 -19 121 -22 178 -23 444
0 271 3 322 24 460 125 828 553 1549 1217 2050 415 314 887 514 1416 600 249
40 588 46 858 14z"/>
<path d="M4791 6961 c-45 -6 -59 -12 -83 -41 -38 -45 -62 -80 -57 -84 2 -2 47
0 99 5 l95 8 38 43 c65 72 66 78 10 77 -26 -1 -72 -5 -102 -8z"/>
<path d="M5090 6963 c-58 -17 -90 -56 -90 -114 0 -49 56 -99 110 -99 119 0
140 177 25 209 -16 4 -37 6 -45 4z"/>
<path d="M5280 6960 c0 -6 21 -33 48 -60 47 -49 48 -49 136 -59 49 -6 93 -8
98 -5 10 6 -65 99 -91 113 -28 15 -191 25 -191 11z"/>
<path d="M4530 6924 c-96 -20 -112 -29 -150 -87 -45 -67 -45 -67 -22 -67 34 0
172 38 189 52 18 15 73 97 73 110 0 10 -11 9 -90 -8z"/>
<path d="M5598 6934 c-9 -8 53 -104 77 -119 24 -16 184 -49 193 -41 3 3 -11
30 -32 60 -40 58 -74 78 -156 91 -25 3 -52 8 -61 11 -8 2 -18 2 -21 -2z"/>
<path d="M4210 6844 c-41 -14 -83 -33 -93 -42 -17 -15 -67 -103 -67 -117 0
-14 130 18 180 45 17 9 80 116 80 135 0 9 -22 4 -100 -21z"/>
<path d="M5900 6865 c0 -12 55 -102 74 -122 23 -23 186 -78 186 -62 0 5 -13
36 -30 68 -31 63 -31 63 -164 105 -52 17 -66 19 -66 11z"/>
<path d="M4733 6810 c-40 -3 -75 -9 -78 -12 -3 -3 20 -26 52 -52 l58 -48 65 7
c91 9 130 16 130 24 0 9 -66 63 -97 79 -12 7 -30 11 -40 11 -10 -1 -51 -5 -90
-9z"/>
<path d="M5335 6801 c-49 -31 -90 -69 -84 -75 4 -4 48 -11 99 -17 91 -10 93
-10 129 16 64 45 85 65 75 74 -5 5 -49 11 -99 15 -78 5 -94 4 -120 -13z"/>
<path d="M3910 6732 c-82 -36 -86 -39 -112 -92 -29 -60 -36 -95 -15 -87 6 3
41 17 77 32 76 31 101 54 125 115 9 25 19 51 22 58 8 18 -4 15 -97 -26z"/>
<path d="M4413 6753 c-35 -8 -63 -18 -63 -22 0 -9 121 -81 135 -81 38 2 176
37 177 45 1 6 -20 25 -48 43 -56 37 -96 40 -201 15z"/>
<path d="M5592 6734 c-30 -20 -51 -39 -47 -42 3 -4 47 -14 96 -24 64 -12 98
-14 116 -7 30 11 102 61 103 71 0 9 -132 38 -177 38 -27 0 -54 -10 -91 -36z"/>
<path d="M6210 6761 c0 -23 42 -119 58 -133 9 -8 52 -29 95 -46 89 -36 92 -33
51 58 -27 61 -21 57 -196 128 -4 2 -8 -1 -8 -7z"/>
<path d="M4151 6674 c-41 -13 -78 -27 -83 -32 -4 -4 23 -23 61 -41 l69 -34 91
28 c51 16 90 33 88 39 -5 18 -100 66 -127 65 -14 -1 -58 -12 -99 -25z"/>
<path d="M5886 6669 c-32 -17 -55 -34 -50 -38 11 -10 86 -36 142 -51 40 -10
49 -9 108 19 35 16 64 34 64 38 0 10 -158 63 -186 63 -10 -1 -45 -15 -78 -31z"/>
<path d="M3620 6591 l-85 -48 -18 -68 c-10 -37 -16 -69 -14 -72 7 -7 151 74
169 95 19 21 50 124 40 134 -4 4 -45 -15 -92 -41z"/>
<path d="M6498 6635 c-6 -6 17 -89 35 -124 12 -24 164 -117 175 -107 9 10 -18
114 -36 135 -20 23 -166 103 -174 96z"/>
<path d="M3946 6593 c-25 -7 -166 -71 -166 -76 0 -2 31 -16 70 -32 l69 -28 91
38 c49 21 90 41 90 45 0 8 -79 44 -115 53 -11 2 -29 2 -39 0z"/>
<path d="M6158 6568 c-27 -11 -48 -23 -48 -27 0 -4 41 -24 90 -45 l90 -38 67
25 c37 13 68 28 70 33 5 14 -149 75 -187 73 -19 0 -56 -10 -82 -21z"/>
<path d="M5035 6548 c-6 -15 -1 -26 16 -38 20 -16 23 -29 31 -151 11 -153 6
-192 -25 -214 -22 -15 -82 -20 -112 -9 -32 13 -43 57 -50 207 -7 138 -6 149
11 162 15 11 17 17 8 32 -6 10 -16 18 -23 17 -6 -1 -40 -2 -76 -2 -74 -2 -91
-18 -58 -55 18 -19 21 -42 27 -162 3 -77 11 -158 17 -180 13 -47 52 -92 96
-111 44 -19 134 -18 183 2 86 34 106 100 94 307 -8 135 -8 149 9 165 11 11 15
25 11 35 -5 14 -20 17 -79 17 -67 0 -74 -2 -80 -22z"/>
<path d="M5416 6534 c-4 -10 1 -25 9 -34 13 -15 14 -25 6 -57 -6 -21 -24 -105
-41 -188 -23 -118 -34 -153 -50 -164 -33 -22 -25 -49 18 -60 84 -23 121 -25
128 -7 4 10 1 28 -6 40 -17 32 5 136 29 136 47 -1 58 -12 80 -83 22 -66 22
-71 6 -83 -36 -26 -14 -47 70 -66 43 -10 85 -16 92 -14 19 8 16 37 -6 60 -28
31 -77 179 -61 184 7 3 30 20 50 39 64 57 74 149 22 207 -30 33 -93 57 -208
82 -135 29 -130 28 -138 8z m234 -123 c20 -15 25 -27 24 -60 -1 -63 -26 -84
-92 -79 -29 3 -57 9 -61 14 -5 5 -2 40 7 82 l16 74 40 -6 c23 -4 52 -15 66
-25z"/>
<path d="M3363 6428 c-40 -27 -79 -59 -87 -71 -17 -25 -33 -137 -20 -137 5 1
43 24 84 53 69 48 76 56 88 102 7 28 11 62 10 76 l-3 27 -72 -50z"/>
<path d="M6776 6428 c12 -89 20 -101 104 -157 44 -30 82 -52 85 -49 5 5 0 38
-20 124 -5 21 -142 124 -164 124 -7 0 -9 -15 -5 -42z"/>
<path d="M3607 6422 c-99 -56 -100 -57 -21 -82 l68 -21 85 45 c47 24 87 49 89
54 4 12 -88 42 -127 42 -14 0 -57 -18 -94 -38z"/>
<path d="M6432 6443 c-29 -9 -51 -20 -49 -26 1 -5 41 -29 88 -53 l85 -44 64
18 c35 9 65 22 67 27 5 15 -148 95 -178 94 -13 0 -48 -8 -77 -16z"/>
<path d="M4255 6426 c-62 -29 -100 -68 -120 -125 -21 -60 -19 -97 10 -189 44
-138 132 -211 243 -200 94 9 189 74 213 146 6 20 9 66 7 106 -8 115 -71 230
-150 272 -43 23 -145 18 -203 -10z m165 -93 c65 -67 100 -208 68 -278 -15 -33
-56 -55 -104 -55 -29 0 -44 7 -70 35 -43 46 -76 135 -77 208 0 47 4 62 24 83
52 56 107 59 159 7z"/>
<path d="M6074 6321 c-39 -17 -74 -70 -74 -112 0 -49 22 -92 94 -187 60 -79
69 -114 35 -133 -50 -26 -132 19 -170 92 -21 42 -49 51 -84 25 -19 -13 -19
-16 -3 -49 73 -152 272 -209 357 -101 50 63 32 133 -68 269 -28 38 -51 78 -51
88 0 9 11 23 25 29 22 10 33 8 70 -10 39 -19 45 -26 45 -52 0 -17 6 -33 14
-36 16 -6 106 42 106 56 0 17 -69 76 -117 100 -51 26 -143 36 -179 21z"/>
<path d="M3353 6250 c-40 -28 -73 -55 -73 -60 0 -9 86 -30 123 -30 21 0 177
98 177 111 0 9 -34 17 -100 24 -54 6 -57 5 -127 -45z"/>
<path d="M6677 6290 c-20 -4 -40 -10 -43 -13 -7 -6 58 -55 124 -94 42 -25 46
-26 113 -14 38 7 69 16 69 20 0 4 -35 30 -78 59 -81 54 -101 59 -185 42z"/>
<path d="M3111 6236 c-35 -29 -70 -64 -76 -77 -16 -30 -24 -134 -10 -135 16
-1 144 106 149 124 10 37 17 142 9 142 -4 0 -37 -24 -72 -54z"/>
<path d="M7027 6283 c-5 -9 8 -142 14 -146 2 -2 34 -29 70 -60 36 -31 71 -57
78 -57 14 0 14 62 1 111 -7 25 -28 51 -68 85 -82 70 -90 76 -95 67z"/>
<path d="M3765 6196 c-64 -30 -132 -102 -141 -151 -30 -161 121 -365 271 -365
91 0 182 74 215 173 14 45 8 55 -39 59 -33 3 -35 1 -43 -37 -15 -67 -74 -109
-138 -97 -33 7 -111 87 -138 143 -39 80 -23 172 35 198 24 11 53 5 53 -11 0
-5 10 -8 23 -6 19 3 22 10 25 61 l3 57 -38 0 c-21 0 -60 -11 -88 -24z"/>
<path d="M3127 6059 c-42 -34 -77 -66 -77 -69 0 -9 62 -20 110 -20 28 0 50 12
107 58 40 31 72 63 73 70 0 7 -13 12 -32 12 -18 0 -49 3 -68 6 -32 5 -43 0
-113 -57z"/>
<path d="M6918 6113 c-27 -2 -48 -8 -48 -13 0 -5 33 -36 73 -69 68 -57 75 -61
122 -60 28 1 63 4 80 8 l29 6 -79 68 c-57 49 -85 67 -104 65 -14 -1 -47 -3
-73 -5z"/>
<path d="M6567 6093 c-4 -3 -7 -20 -7 -37 -1 -44 -230 -326 -264 -326 -19 0
-36 -16 -36 -35 0 -2 216 -179 269 -219 10 -8 20 -2 42 24 39 46 38 70 -2 70
-21 0 -47 14 -87 46 -31 25 -58 49 -60 53 -3 8 76 111 85 111 20 0 72 -54 75
-78 5 -44 38 -40 77 8 39 49 38 75 -4 75 -18 0 -45 11 -64 27 -39 29 -38 32
26 107 l28 33 58 -48 c37 -32 57 -56 57 -70 0 -40 32 -39 66 2 18 21 30 42 27
48 -6 14 -260 216 -271 216 -5 0 -12 -3 -15 -7z"/>
<path d="M7265 6010 c-8 -81 -7 -84 76 -174 60 -66 64 -64 68 35 2 55 0 59
-47 115 -27 33 -58 67 -69 77 -21 18 -21 18 -28 -53z"/>
<path d="M2873 6013 c-27 -32 -55 -67 -60 -78 -12 -22 -5 -158 8 -153 4 2 35
34 68 72 l61 69 0 73 c0 92 -10 94 -77 17z"/>
<path d="M3029 5911 c-53 -6 -59 -9 -110 -65 -86 -94 -87 -96 -42 -96 94 2
123 15 184 81 32 35 58 70 59 77 0 13 -1 13 -91 3z"/>
<path d="M7096 5912 c-3 -6 24 -42 61 -81 l68 -71 73 -7 c40 -3 72 -2 72 3 0
5 -31 42 -69 82 -67 71 -68 72 -119 72 -27 0 -57 3 -65 6 -8 3 -18 1 -21 -4z"/>
<path d="M4877 5874 c-65 -7 -171 -26 -235 -42 -701 -174 -1235 -692 -1435
-1392 -39 -134 -58 -262 -64 -430 -14 -380 66 -718 250 -1045 166 -296 430
-564 729 -739 469 -275 1060 -338 1583 -169 320 103 584 269 820 514 245 255
407 549 494 895 39 159 46 225 46 454 0 187 -4 245 -22 345 -36 199 -103 393
-197 571 -231 435 -614 771 -1066 932 -299 107 -594 142 -903 106z m398 -74
c589 -56 1113 -376 1430 -874 114 -178 218 -448 257 -667 32 -176 32 -491 0
-659 -75 -398 -243 -718 -531 -1009 -257 -260 -596 -441 -957 -510 -249 -48
-438 -50 -700 -6 -490 83 -955 384 -1230 797 -207 311 -307 620 -321 988 -23
616 254 1195 752 1571 252 190 574 321 880 358 185 23 268 25 420 11z"/>
<path d="M5035 5671 c-66 -39 -125 -138 -165 -270 -21 -72 -21 -75 -4 -88 30
-22 43 -15 54 30 44 167 121 287 185 287 29 0 76 -39 105 -85 16 -26 19 -43
15 -69 -9 -46 1 -73 34 -90 20 -11 30 -27 40 -65 7 -28 10 -54 7 -59 -3 -6
-50 -28 -104 -51 l-99 -42 -74 34 c-237 108 -517 159 -611 111 -84 -42 -111
-103 -83 -188 21 -64 88 -165 156 -234 49 -50 53 -52 70 -36 11 10 19 21 19
25 0 5 -28 39 -61 76 -76 84 -105 129 -121 187 -29 111 56 147 259 112 106
-19 163 -36 163 -50 0 -6 -5 -58 -12 -115 l-12 -104 -45 -31 c-58 -40 -209
-165 -240 -200 -15 -15 -35 -26 -51 -26 -36 0 -70 -38 -70 -78 0 -18 -12 -56
-27 -85 -53 -105 -49 -172 12 -225 63 -56 176 -64 347 -23 70 16 73 18 71 45
-1 16 -4 30 -6 32 -2 2 -46 -5 -98 -17 -183 -40 -291 -16 -296 67 -4 57 34
126 77 140 41 13 72 50 68 79 -3 21 20 55 59 88 21 18 22 17 111 -48 l89 -66
7 -67 c9 -96 43 -272 68 -350 60 -197 166 -309 266 -282 76 20 148 120 201
277 28 83 27 99 -5 107 -15 4 -27 6 -29 4 -1 -2 -12 -37 -25 -78 -27 -92 -69
-176 -108 -218 -64 -68 -135 -31 -198 104 -39 84 -79 223 -67 234 4 4 51 26
104 48 l96 42 78 -36 c42 -19 127 -52 188 -71 77 -25 117 -44 132 -61 17 -19
32 -26 59 -26 21 0 40 5 44 11 4 6 43 14 86 17 105 8 153 34 180 97 19 46 19
47 -2 115 -22 71 -66 139 -147 226 -49 52 -64 58 -82 29 -10 -16 -5 -27 40
-77 104 -117 137 -174 137 -238 0 -57 -43 -86 -130 -86 -39 0 -54 5 -74 25
-28 28 -59 31 -95 11 -20 -11 -33 -11 -74 0 -27 7 -51 15 -53 17 -3 2 1 54 8
116 l12 111 50 34 c92 61 220 174 289 253 123 141 165 275 107 339 -61 65
-192 85 -342 49 -95 -22 -98 -23 -98 -57 0 -27 3 -30 23 -24 63 18 218 37 265
33 72 -5 106 -31 110 -85 2 -24 -4 -54 -14 -74 -25 -48 -94 -135 -158 -197
l-55 -54 -43 35 c-24 19 -64 48 -89 66 l-46 31 -7 78 c-4 43 -18 134 -32 201
-20 96 -23 130 -15 153 14 40 0 74 -38 94 -17 8 -38 29 -46 45 -22 43 -73 99
-106 116 -39 19 -98 18 -134 -5z m-42 -521 c15 -7 27 -17 27 -21 0 -6 -109
-73 -143 -88 -7 -3 -1 107 8 136 4 13 41 3 108 -27z m343 -44 l7 -69 -59 33
c-86 49 -94 54 -94 61 0 11 124 58 132 51 4 -4 10 -38 14 -76z m-123 -69 c51
-29 102 -59 113 -67 18 -11 23 -27 28 -97 4 -45 4 -110 0 -143 l-7 -60 -91
-54 c-163 -96 -140 -93 -242 -34 -49 27 -104 61 -121 75 l-33 24 0 137 0 137
113 67 c61 36 120 67 130 67 10 1 59 -23 110 -52z m-415 -225 c2 -58 -1 -82
-9 -82 -17 0 -109 72 -108 85 0 13 91 84 104 81 6 -1 11 -39 13 -84z m690 46
l56 -41 -35 -30 c-45 -38 -79 -61 -84 -56 -3 4 -8 138 -6 162 2 13 14 7 69
-35z m-473 -360 c0 -15 -115 -62 -125 -51 -4 4 -10 39 -14 76 l-7 68 73 -40
c40 -22 73 -46 73 -53z m320 6 c-3 -30 -10 -56 -15 -59 -12 -7 -123 38 -127
52 -2 6 19 23 47 37 28 14 61 33 73 41 20 14 22 14 25 -1 2 -9 1 -41 -3 -70z"/>
<path d="M3808 4884 c-35 -19 -48 -43 -48 -93 0 -34 5 -44 35 -68 35 -28 35
-29 35 -105 l0 -78 -42 -26 -42 -27 -35 20 c-23 14 -38 31 -43 52 -6 20 -20
36 -40 47 -29 15 -32 15 -57 -4 -29 -21 -39 -65 -20 -89 20 -24 58 -34 80 -23
15 9 28 6 59 -11 38 -21 40 -25 40 -70 l0 -47 -76 -42 c-50 -27 -79 -38 -87
-32 -45 35 -120 12 -143 -43 -29 -70 15 -135 91 -135 47 0 95 45 95 89 0 27 8
35 70 71 l71 41 44 -21 c43 -21 45 -24 45 -63 0 -32 -7 -48 -25 -66 -44 -41
-22 -111 36 -111 60 0 90 69 48 111 -21 21 -34 87 -20 105 3 5 22 17 42 28
l37 18 71 -41 c63 -37 71 -45 71 -72 0 -42 48 -89 90 -89 51 0 88 25 101 69
10 34 9 44 -8 72 -11 20 -33 39 -55 47 -32 12 -41 12 -68 -2 -31 -15 -33 -14
-105 26 l-73 41 0 46 c0 44 3 48 40 68 31 18 45 20 66 12 64 -25 107 71 51
114 -24 17 -30 18 -55 5 -18 -8 -33 -26 -40 -47 -7 -22 -24 -41 -45 -54 l-34
-19 -42 28 -43 28 0 73 c0 72 1 75 35 107 55 52 48 129 -15 161 -36 19 -57 18
-92 -1z"/>
<path d="M6308 4884 c-35 -18 -48 -43 -48 -90 0 -29 7 -43 35 -70 34 -32 35
-35 35 -108 l0 -76 -42 -26 -41 -26 -36 20 c-23 14 -38 31 -44 51 -10 42 -46
65 -80 52 -53 -20 -61 -80 -16 -114 22 -16 32 -17 55 -10 23 8 36 6 66 -11 35
-20 38 -24 38 -68 l0 -47 -75 -41 c-52 -29 -80 -39 -88 -32 -25 20 -67 22 -98
7 -36 -19 -62 -74 -53 -110 9 -38 59 -75 101 -75 45 0 93 45 93 89 0 27 8 35
71 72 l72 42 43 -22 c41 -19 44 -23 44 -62 0 -29 -7 -50 -25 -71 -14 -16 -25
-38 -25 -49 0 -28 36 -59 69 -59 55 0 81 70 41 110 -14 14 -20 33 -20 68 1 45
2 48 41 66 l40 18 67 -38 c61 -36 67 -42 75 -81 22 -114 178 -112 194 3 4 36
1 46 -24 74 -24 27 -37 33 -71 33 -23 0 -48 -5 -56 -12 -10 -9 -27 -4 -77 25
-82 45 -80 44 -84 96 -2 42 -1 45 37 65 31 18 45 20 66 12 63 -24 108 71 52
112 -37 27 -68 15 -90 -35 -11 -27 -29 -48 -51 -60 -34 -18 -35 -18 -71 5
l-37 24 -1 81 c0 70 3 84 21 100 57 52 57 123 0 161 -39 26 -65 28 -103 7z"/>
<path d="M3760 3918 c0 -12 27 -128 156 -688 25 -107 60 -262 79 -345 94 -412
103 -448 122 -465 23 -24 154 -94 269 -147 100 -45 261 -94 391 -119 88 -16
311 -33 373 -28 19 1 76 5 125 9 171 12 362 60 545 137 108 46 258 128 282
155 9 10 34 98 57 198 22 99 61 270 86 380 101 436 124 537 165 715 23 102 43
190 43 195 1 7 -189 10 -553 10 l-555 0 -58 -29 c-59 -30 -127 -88 -163 -139
l-19 -27 -41 53 c-48 62 -118 111 -188 132 -68 20 -1116 23 -1116 3z m1179
-278 c65 -15 104 -48 99 -83 l-3 -27 -35 24 c-65 44 -92 46 -548 46 -375 0
-433 2 -438 15 -16 40 -13 40 441 38 283 -1 454 -6 484 -13z m1250 10 c7 -4
11 -16 9 -26 -3 -18 -23 -19 -458 -24 -250 -3 -464 -9 -475 -14 -11 -5 -32
-18 -47 -28 -37 -25 -50 -23 -46 10 2 21 13 32 50 50 26 13 68 27 95 31 64 10
856 11 872 1z m-1204 -271 c43 -22 50 -30 53 -58 2 -18 0 -32 -5 -30 -4 2 -33
18 -63 34 l-55 30 -422 3 c-368 3 -422 5 -427 18 -3 9 -3 20 0 25 3 6 175 9
437 7 l432 -3 50 -26z m1163 9 l-3 -23 -425 -5 -425 -5 -55 -30 c-30 -16 -58
-31 -62 -33 -5 -2 -8 10 -8 27 0 26 6 34 43 52 23 12 53 25 67 30 14 4 215 8
448 8 l423 1 -3 -22z m-1188 -241 c68 -27 82 -40 78 -76 l-3 -31 -50 33 -49
32 -407 3 c-394 3 -408 3 -414 22 -4 11 -3 25 0 30 5 8 131 10 403 8 350 -3
402 -6 442 -21z m1129 14 c8 -5 11 -16 7 -29 -7 -21 -12 -21 -415 -24 l-407
-3 -42 -27 c-51 -34 -62 -35 -62 -4 0 32 42 61 111 80 42 12 135 15 424 15
204 0 376 -3 384 -8z m-1104 -272 c42 -21 50 -30 53 -57 3 -30 -10 -43 -22
-23 -3 5 -27 19 -53 32 -47 24 -52 24 -420 27 l-373 3 0 25 0 25 383 -3 383
-3 49 -26z m1063 9 l-3 -23 -375 -5 c-387 -6 -400 -7 -460 -50 -37 -26 -40
-25 -40 10 0 25 7 33 43 51 23 12 53 25 67 30 14 4 193 8 398 8 l373 1 -3 -22z
m-1065 -250 c51 -24 57 -30 57 -57 0 -17 -2 -31 -4 -31 -2 0 -25 12 -52 28
l-49 27 -355 5 -355 5 -3 28 -3 28 353 -3 353 -3 58 -27z m1012 22 c3 -5 1
-19 -5 -30 -10 -19 -20 -20 -354 -20 l-344 0 -57 -30 c-31 -16 -59 -30 -61
-30 -2 0 -4 12 -4 28 0 31 19 46 95 73 44 16 88 18 387 19 209 0 339 -4 343
-10z m-1014 -267 c47 -24 54 -32 57 -61 l3 -33 -58 33 -58 33 -325 5 -325 5
-3 23 -3 22 329 0 328 0 55 -27z m965 11 c-3 -9 -6 -20 -6 -25 0 -5 -132 -9
-319 -9 l-320 0 -66 -35 -66 -34 3 32 c3 28 10 36 57 60 l55 27 334 0 c301 0
334 -2 328 -16z"/>
<path d="M3508 3625 c-3 -3 30 -128 74 -278 43 -149 102 -353 129 -451 l51
-179 67 -66 c74 -74 159 -146 166 -140 2 3 -3 31 -11 64 -8 33 -62 267 -120
520 -58 253 -109 477 -115 498 l-10 37 -113 0 c-62 0 -115 -2 -118 -5z"/>
<path d="M6436 3478 c-42 -179 -145 -627 -187 -813 -16 -71 -28 -136 -27 -144
2 -11 36 14 103 75 55 50 106 98 113 106 6 8 41 116 76 239 36 123 94 326 130
451 36 124 66 229 66 232 0 3 -54 6 -119 6 l-119 0 -36 -152z"/>
<path d="M3300 5832 c-114 -72 -160 -185 -107 -263 47 -70 100 -75 258 -22
117 38 141 38 147 -4 9 -57 -56 -120 -135 -131 l-48 -7 -3 -43 c-3 -40 -2 -42
26 -42 83 0 174 53 217 127 55 93 37 178 -45 221 -52 26 -72 24 -206 -19 -104
-33 -129 -36 -138 -13 -11 29 -6 44 30 83 32 36 38 39 60 29 38 -17 50 1 38
59 -11 60 -31 65 -94 25z"/>
<path d="M2666 5763 l-57 -78 6 -70 c3 -38 9 -73 14 -78 5 -5 34 27 66 70 l57
78 -7 70 c-3 39 -10 74 -14 78 -5 4 -34 -27 -65 -70z"/>
<path d="M7477 5823 c-2 -5 -7 -36 -11 -71 l-7 -62 56 -80 c31 -44 60 -80 65
-80 9 0 21 64 23 122 1 28 -11 51 -52 107 -51 68 -65 80 -74 64z"/>
<path d="M6500 5685 c0 -8 5 -15 10 -15 6 0 10 7 10 15 0 8 -4 15 -10 15 -5 0
-10 -7 -10 -15z"/>
<path d="M7290 5689 c0 -17 91 -139 115 -155 12 -7 50 -17 85 -21 73 -7 73
-13 -3 89 -39 54 -57 70 -86 77 -65 16 -111 20 -111 10z"/>
<path d="M2804 5679 c-23 -6 -45 -28 -82 -81 -27 -40 -51 -77 -52 -83 -2 -11
46 -9 100 6 39 9 66 35 124 117 l38 52 -49 -1 c-26 0 -62 -5 -79 -10z"/>
<path d="M6918 5627 c-53 -44 -60 -99 -32 -233 8 -42 14 -90 12 -107 -3 -28
-7 -32 -37 -35 -60 -6 -111 62 -111 146 0 54 -8 62 -61 62 -28 0 -29 -1 -29
-53 0 -40 8 -70 31 -116 75 -150 241 -182 305 -59 18 35 18 92 -1 201 -19 105
-15 127 25 127 20 0 37 -11 59 -35 33 -38 38 -54 20 -72 -25 -25 -2 -43 56
-43 53 0 55 1 55 28 -1 54 -69 153 -131 191 -48 29 -125 28 -161 -2z"/>
<path d="M2486 5498 c-40 -70 -47 -88 -42 -118 10 -58 26 -110 36 -110 8 0 27
30 80 125 22 39 22 40 5 112 -10 40 -20 73 -24 73 -4 0 -28 -37 -55 -82z"/>
<path d="M7659 5553 c-6 -16 -13 -51 -16 -79 -5 -47 -2 -57 42 -132 26 -45 48
-82 51 -82 6 0 37 112 37 136 0 20 -88 184 -99 184 -3 0 -9 -12 -15 -27z"/>
<path d="M2680 5443 c-30 -8 -61 -19 -67 -25 -18 -15 -104 -160 -98 -166 5 -6
117 17 133 27 5 3 32 43 60 88 44 72 53 96 33 92 -3 -1 -31 -8 -61 -16z"/>
<path d="M7460 5452 c0 -15 80 -149 98 -165 18 -16 133 -50 141 -42 8 9 -74
150 -100 172 -8 6 -34 16 -59 23 -25 6 -53 13 -62 16 -10 3 -18 1 -18 -4z"/>
<path d="M2964 5411 c-96 -59 -143 -206 -95 -300 61 -119 245 -208 355 -171
106 35 175 162 146 269 -11 42 -13 43 -43 37 -44 -9 -50 -18 -39 -60 13 -47
-1 -99 -35 -126 -95 -75 -331 66 -309 185 9 48 29 68 67 69 41 1 47 19 22 72
-22 46 -30 49 -69 25z"/>
<path d="M2335 5214 c-36 -80 -38 -89 -27 -128 17 -65 31 -96 42 -96 13 0 70
123 77 167 5 32 -31 143 -47 143 -4 0 -24 -39 -45 -86z"/>
<path d="M7801 5241 c-11 -32 -21 -64 -21 -72 0 -24 74 -179 84 -176 14 5 45
88 45 124 1 31 -66 183 -80 183 -3 0 -16 -26 -28 -59z"/>
<path d="M2520 5176 c-54 -21 -55 -23 -94 -109 -22 -48 -37 -90 -33 -93 3 -3
34 4 69 18 l63 23 42 85 c23 47 42 88 42 93 1 12 -31 6 -89 -17z"/>
<path d="M7610 5176 c5 -13 24 -55 44 -93 33 -67 37 -71 94 -91 59 -22 82 -27
82 -17 0 3 -20 45 -44 94 l-45 88 -59 21 c-76 28 -84 28 -72 -2z"/>
<path d="M2245 4998 c-40 -111 -55 -156 -55 -171 0 -26 60 -141 69 -131 4 5
20 49 36 97 l28 89 -29 60 c-31 64 -41 77 -49 56z"/>
<path d="M7920 4944 l-30 -66 32 -94 c17 -52 35 -94 38 -94 11 0 60 115 60
140 0 30 -52 180 -62 180 -4 0 -21 -30 -38 -66z"/>
<path d="M2408 4900 c-51 -27 -58 -35 -76 -82 -34 -94 -44 -129 -37 -136 3 -4
35 8 70 27 l64 33 27 81 c15 45 29 88 32 95 7 19 -18 14 -80 -18z"/>
<path d="M7725 4913 c4 -10 18 -49 31 -87 13 -38 31 -77 39 -86 20 -22 113
-65 122 -56 4 4 -6 46 -23 94 -31 87 -31 87 -90 119 -68 37 -90 41 -79 16z"/>
<path d="M2141 4673 c-5 -21 -15 -66 -21 -99 -12 -61 -12 -62 21 -119 19 -32
38 -58 43 -59 12 -1 45 127 46 174 0 24 -11 52 -35 88 -20 28 -37 52 -40 52
-2 0 -9 -17 -14 -37z"/>
<path d="M8025 4670 c-48 -77 -49 -81 -30 -180 10 -50 21 -93 26 -96 10 -6 67
80 76 114 6 25 -26 190 -38 198 -5 3 -20 -14 -34 -36z"/>
<path d="M2323 4615 c-41 -27 -54 -42 -62 -72 -33 -127 -40 -158 -36 -161 2
-3 33 13 67 35 60 37 64 42 79 98 40 150 37 156 -48 100z"/>
<path d="M7831 4563 c10 -48 19 -90 19 -95 0 -12 124 -88 132 -80 4 4 -3 47
-15 97 l-22 89 -55 38 c-30 20 -60 37 -67 37 -8 1 -5 -25 8 -86z"/>
<path d="M2087 4393 c-3 -5 -8 -37 -11 -73 -4 -36 -9 -77 -12 -91 -4 -19 7
-41 42 -89 55 -76 59 -73 70 63 l7 84 -43 57 c-45 59 -46 60 -53 49z"/>
<path d="M8070 4338 c-41 -52 -42 -54 -35 -113 11 -106 17 -135 29 -134 6 0
28 23 49 52 37 50 38 54 32 112 -10 97 -17 135 -25 135 -5 0 -27 -24 -50 -52z"/>
<path d="M2281 4330 c-29 -23 -56 -51 -61 -63 -12 -31 -33 -177 -26 -184 7 -7
75 39 104 70 15 16 23 47 32 115 7 51 10 96 7 98 -2 3 -28 -14 -56 -36z"/>
<path d="M7874 4343 c2 -10 7 -47 11 -83 4 -36 9 -72 11 -82 6 -19 113 -103
121 -94 7 7 -15 174 -25 192 -10 18 -99 84 -112 84 -6 0 -9 -8 -6 -17z"/>
<path d="M2050 3977 l0 -103 48 -47 c26 -26 51 -47 55 -47 4 0 7 45 7 100 l0
101 -46 49 c-26 28 -51 50 -55 50 -5 0 -9 -46 -9 -103z"/>
<path d="M8096 4028 l-46 -53 0 -97 c0 -54 4 -98 8 -98 4 0 29 22 55 48 l47
48 0 102 c0 56 -4 102 -9 102 -5 0 -30 -24 -55 -52z"/>
<path d="M2241 4016 l-51 -55 0 -90 c0 -54 4 -91 10 -91 6 0 33 22 60 48 l50
48 0 97 c0 53 -4 97 -9 97 -4 0 -31 -24 -60 -54z"/>
<path d="M7900 3997 c0 -39 4 -86 9 -103 8 -28 99 -126 111 -119 3 2 3 49 0
105 l-5 102 -48 44 c-27 24 -53 44 -58 44 -5 0 -9 -33 -9 -73z"/>
<path d="M2250 3735 l-42 -55 7 -93 c3 -51 10 -99 14 -106 9 -14 74 57 88 97
9 24 -5 192 -17 205 -4 4 -26 -17 -50 -48z"/>
<path d="M7907 3777 c-3 -8 -8 -54 -12 -103 l-7 -89 42 -58 c23 -32 46 -55 50
-50 4 4 12 48 19 97 10 87 10 91 -13 130 -33 56 -72 92 -79 73z"/>
<path d="M2054 3708 c3 -24 8 -66 12 -94 7 -61 6 -59 66 -106 42 -35 68 -47
68 -32 0 10 -21 149 -26 171 -4 22 -96 103 -116 103 -6 0 -8 -16 -4 -42z"/>
<path d="M8101 3716 c-55 -42 -67 -65 -76 -146 -3 -36 -9 -73 -11 -82 -8 -28
14 -21 67 20 33 25 52 48 58 72 14 53 25 170 15 170 -5 0 -29 -16 -53 -34z"/>
<path d="M2287 3438 c-20 -35 -37 -69 -37 -78 0 -23 36 -170 44 -177 9 -10 21
5 54 68 l30 56 -22 91 c-11 50 -24 93 -27 96 -3 3 -22 -22 -42 -56z"/>
<path d="M7857 3406 c-9 -46 -17 -91 -17 -101 0 -23 62 -126 74 -122 12 4 45
130 46 171 0 33 -55 136 -73 136 -8 0 -20 -35 -30 -84z"/>
<path d="M2087 3434 c-7 -7 40 -184 53 -199 12 -15 110 -68 115 -63 3 2 -5 44
-17 93 -14 60 -28 95 -43 109 -30 28 -101 67 -108 60z"/>
<path d="M8057 3402 c-61 -40 -63 -43 -91 -169 -17 -76 -12 -78 64 -25 53 37
54 38 76 127 13 50 20 93 16 97 -4 4 -33 -9 -65 -30z"/>
<path d="M2349 3137 l-29 -64 32 -91 c17 -51 35 -92 40 -92 4 0 19 23 34 52
20 39 25 62 22 92 -6 51 -47 166 -60 166 -5 0 -22 -28 -39 -63z"/>
<path d="M7787 3118 c-15 -46 -27 -91 -27 -100 0 -25 53 -129 63 -125 5 1 23
43 40 92 l30 90 -29 59 c-16 33 -34 61 -39 63 -6 2 -23 -34 -38 -79z"/>
<path d="M2157 3122 c-3 -4 9 -47 27 -96 l32 -90 62 -34 c35 -19 66 -32 69
-28 7 6 -8 61 -38 141 -19 51 -22 53 -116 99 -17 9 -34 13 -36 8z"/>
<path d="M7993 3101 c-41 -20 -67 -39 -76 -58 -21 -42 -60 -164 -54 -170 3 -2
34 10 69 29 l63 33 32 90 c19 49 32 93 31 97 -2 4 -31 -5 -65 -21z"/>
<path d="M2872 3075 c-34 -12 -65 -25 -68 -28 -3 -3 4 -27 15 -53 15 -32 25
-44 32 -37 6 6 6 18 0 35 -10 28 -6 38 16 38 7 0 13 -9 13 -21 0 -14 5 -19 18
-17 12 3 16 12 14 32 -4 34 21 32 26 -2 3 -21 21 -29 34 -16 8 7 -21 95 -30
93 -4 -1 -35 -12 -70 -24z"/>
<path d="M7257 3053 c-11 -10 -8 -43 3 -43 6 0 30 -18 54 -40 24 -22 48 -40
55 -40 17 0 13 31 -6 45 -22 17 -10 49 16 40 18 -5 41 17 41 39 0 8 -155 7
-163 -1z m73 -43 c0 -5 -2 -10 -4 -10 -3 0 -8 5 -11 10 -3 6 -1 10 4 10 6 0
11 -4 11 -10z"/>
<path d="M2973 2935 c-11 -8 -40 -22 -64 -31 -24 -10 -45 -18 -46 -19 -8 -5
32 -85 43 -85 17 0 27 17 14 25 -25 16 -8 41 40 60 33 13 50 25 50 37 0 24
-14 29 -37 13z"/>
<path d="M2451 2865 c-12 -31 -21 -63 -21 -73 0 -21 71 -182 80 -182 12 0 50
100 50 130 0 32 -65 180 -79 180 -5 0 -19 -25 -30 -55z"/>
<path d="M7195 2899 c-5 -15 1 -29 22 -51 l28 -31 -37 6 c-28 4 -40 1 -54 -14
-9 -10 -15 -21 -13 -24 14 -14 138 -72 143 -68 13 14 5 43 -11 43 -10 0 -25 5
-33 11 -11 8 -6 9 23 5 51 -7 61 17 21 50 -32 25 -13 34 20 9 21 -16 36 -12
36 9 0 11 -114 76 -133 76 -3 0 -9 -9 -12 -21z"/>
<path d="M7687 2841 c-21 -44 -37 -89 -37 -100 0 -25 40 -131 50 -131 13 0 80
158 79 187 0 33 -32 116 -46 120 -5 2 -26 -32 -46 -76z"/>
<path d="M2265 2799 c15 -48 62 -144 76 -156 18 -15 129 -56 135 -50 2 2 -14
43 -36 91 -36 79 -43 89 -82 106 -24 10 -56 22 -72 26 -26 6 -28 5 -21 -17z"/>
<path d="M7871 2798 c-52 -20 -54 -22 -92 -103 -37 -78 -45 -105 -34 -105 3 0
33 11 68 25 63 25 63 26 105 110 23 47 42 87 42 90 0 10 -37 3 -89 -17z"/>
<path d="M3075 2675 c-16 -14 -42 -30 -57 -36 -28 -12 -37 -33 -18 -44 6 -4
22 0 34 9 23 14 25 14 39 -7 12 -17 18 -19 28 -10 10 10 10 15 -1 28 -11 13
-11 18 0 28 10 9 13 9 17 0 3 -7 13 -23 23 -35 16 -20 19 -21 25 -6 6 16 -38
98 -53 98 -4 -1 -20 -12 -37 -25z"/>
<path d="M7080 2666 c-15 -15 -13 -22 18 -53 15 -15 37 -41 49 -58 17 -24 24
-27 34 -18 10 10 10 17 0 37 -17 31 -7 48 25 40 14 -4 25 -2 26 5 3 27 2 31
-7 33 -5 1 -38 7 -72 13 -43 8 -65 9 -73 1z m70 -46 c0 -5 -2 -10 -4 -10 -3 0
-8 5 -11 10 -3 6 -1 10 4 10 6 0 11 -4 11 -10z"/>
<path d="M2592 2640 c-5 -14 -15 -48 -22 -76 l-13 -51 53 -87 c35 -57 56 -82
61 -74 4 7 13 41 20 76 15 70 15 67 -56 182 -33 53 -34 54 -43 30z"/>
<path d="M7556 2574 c-51 -90 -51 -91 -25 -186 5 -21 14 -38 19 -38 13 0 100
151 100 174 0 27 -31 136 -39 136 -3 0 -28 -39 -55 -86z"/>
<path d="M3180 2553 c0 -5 -16 -19 -36 -32 -49 -34 -58 -54 -39 -91 11 -22 23
-30 42 -30 30 0 113 49 113 67 0 22 -21 25 -43 5 -46 -41 -87 -50 -87 -19 0
13 60 57 78 57 13 0 15 10 6 34 -6 16 -34 23 -34 9z"/>
<path d="M7003 2534 c-22 -9 -58 -77 -44 -82 7 -2 33 -20 58 -39 43 -33 73
-38 73 -12 0 7 -8 18 -17 25 -25 17 -8 30 22 16 21 -10 26 -9 35 8 15 27 13
30 -18 30 -20 0 -35 9 -50 30 -22 29 -34 34 -59 24z m33 -45 c10 -17 -13 -36
-27 -22 -12 12 -4 33 11 33 5 0 12 -5 16 -11z"/>
<path d="M7752 2520 c-35 -10 -68 -22 -73 -27 -22 -22 -97 -159 -91 -165 4 -4
36 1 72 10 56 15 68 22 91 57 49 75 79 134 72 138 -5 3 -36 -3 -71 -13z"/>
<path d="M2424 2463 c44 -84 67 -111 104 -119 15 -3 42 -10 61 -15 19 -5 37
-7 39 -4 2 2 -16 39 -40 82 -47 85 -75 106 -157 119 l-44 7 37 -70z"/>
<path d="M3285 2387 c5 -20 -1 -31 -36 -61 -40 -33 -42 -38 -27 -52 15 -15 19
-14 48 20 32 36 64 47 73 24 4 -10 7 -10 18 -1 10 10 7 20 -18 50 -37 46 -67
57 -58 20z"/>
<path d="M2731 2335 c-9 -50 -9 -71 0 -88 21 -40 101 -147 109 -147 12 0 33
136 24 152 -20 35 -108 148 -114 148 -5 0 -13 -29 -19 -65z"/>
<path d="M7409 2338 c-70 -99 -69 -97 -57 -172 7 -40 15 -65 22 -63 6 2 35 37
64 78 52 72 54 75 47 124 -8 66 -16 95 -24 95 -4 0 -27 -28 -52 -62z"/>
<path d="M6878 2373 c-27 -32 -29 -42 -15 -76 28 -65 111 -72 139 -11 20 43
-25 92 -56 61 -22 -22 -20 -40 3 -32 11 3 22 1 25 -4 9 -13 -23 -43 -37 -35
-49 28 -61 66 -27 84 11 6 18 15 15 21 -9 14 -30 11 -47 -8z"/>
<path d="M3361 2245 c-24 -26 -41 -54 -41 -68 0 -28 29 -57 57 -57 27 0 112
70 106 87 -7 19 -31 16 -42 -6 -15 -27 -61 -55 -73 -43 -15 15 -1 45 32 67 33
22 37 37 16 54 -10 9 -22 2 -55 -34z"/>
<path d="M2550 2255 c0 -10 86 -128 107 -147 10 -9 45 -21 77 -27 76 -14 79
-14 73 3 -12 30 -110 156 -125 160 -34 10 -132 18 -132 11z"/>
<path d="M7573 2251 c-23 -4 -52 -16 -63 -26 -23 -21 -110 -140 -110 -150 0
-8 96 4 127 16 26 10 46 31 103 112 l41 57 -28 -1 c-15 -1 -47 -5 -70 -8z"/>
<path d="M6769 2238 c-16 -5 -32 -22 -39 -39 -11 -26 -10 -34 7 -57 11 -15 32
-34 46 -42 24 -13 30 -13 54 0 39 22 51 61 30 94 -25 37 -66 55 -98 44z m49
-44 c25 -17 30 -59 8 -67 -19 -8 -66 30 -66 52 0 34 22 40 58 15z"/>
<path d="M7224 2101 c-47 -56 -60 -78 -64 -113 -6 -52 -1 -118 10 -118 4 0 35
32 69 71 l61 70 0 74 c0 41 -4 76 -9 79 -4 3 -35 -26 -67 -63z"/>
<path d="M2917 2154 c-4 -4 -7 -35 -7 -70 0 -57 3 -66 39 -111 21 -26 51 -61
66 -78 l28 -29 9 24 c5 14 8 50 6 82 -4 53 -8 60 -63 120 -63 68 -68 72 -78
62z"/>
<path d="M3520 2141 c0 -4 -19 -29 -43 -55 -29 -31 -40 -49 -33 -56 15 -15 27
-12 42 7 17 25 30 9 16 -21 -9 -20 -7 -27 7 -40 21 -19 31 -12 31 20 0 16 10
29 30 39 39 20 39 52 2 88 -28 27 -52 35 -52 18z m40 -61 c0 -22 -1 -23 -24
-14 -18 7 -10 34 10 34 8 0 14 -9 14 -20z"/>
<path d="M6603 2088 c-18 -13 -33 -27 -32 -33 0 -5 21 -34 48 -62 44 -49 49
-52 67 -39 19 15 19 15 -1 30 -26 19 -12 32 19 18 19 -8 27 -8 36 3 13 16 5
35 -15 35 -7 0 -22 16 -34 35 -24 41 -44 44 -88 13z m52 -28 c11 -17 -5 -32
-21 -19 -8 6 -14 15 -14 20 0 12 27 11 35 -1z"/>
<path d="M2740 2000 c0 -18 108 -133 139 -147 28 -13 141 -18 141 -5 0 4 -31
40 -69 80 l-69 72 -55 0 c-30 0 -62 3 -71 6 -9 4 -16 1 -16 -6z"/>
<path d="M3626 1979 c-14 -17 -26 -41 -26 -54 0 -27 42 -65 72 -65 30 0 78 54
78 88 0 65 -79 85 -124 31z m88 -16 c9 -22 -25 -68 -50 -68 -27 0 -30 39 -5
64 25 25 47 27 55 4z"/>
<path d="M7392 2003 l-63 -4 -65 -67 c-35 -37 -64 -73 -64 -81 0 -10 16 -12
71 -9 l72 4 63 69 c56 62 79 99 57 93 -5 -1 -36 -3 -71 -5z"/>
<path d="M6474 1981 c-46 -28 -49 -39 -21 -69 13 -15 32 -39 42 -54 9 -16 23
-28 31 -28 22 0 27 20 10 39 -15 16 -15 19 4 36 25 23 26 57 2 78 -23 21 -30
21 -68 -2z m51 -41 c0 -22 -39 -19 -43 3 -3 15 1 18 20 15 12 -2 23 -10 23
-18z"/>
<path d="M3113 1883 c3 -39 11 -79 18 -90 14 -21 133 -123 144 -123 4 0 5 33
2 73 -6 78 -7 80 -131 180 l-39 31 6 -71z"/>
<path d="M7025 1889 c-38 -33 -73 -65 -76 -72 -10 -18 -22 -147 -13 -147 12 0
143 110 152 128 12 22 22 141 14 146 -4 2 -38 -23 -77 -55z"/>
<path d="M3900 1814 c-11 -27 -28 -57 -37 -67 -15 -16 -15 -19 -3 -27 22 -14
25 -13 45 28 l20 37 5 -55 c7 -75 25 -75 72 -1 26 43 33 62 25 70 -19 19 -34
12 -42 -21 l-8 -33 -6 44 c-4 29 -13 48 -28 58 -20 14 -22 12 -43 -33z"/>
<path d="M6223 1820 c-18 -11 -33 -22 -33 -24 0 -3 11 -22 25 -42 14 -21 28
-48 31 -61 4 -13 11 -23 16 -23 20 0 88 44 88 57 0 17 -15 16 -44 -3 -16 -10
-26 -12 -31 -5 -8 14 3 31 21 31 17 0 18 12 2 28 -7 7 -17 8 -29 2 -12 -7 -20
-6 -25 1 -7 12 12 29 34 29 18 0 10 24 -9 28 -8 1 -29 -7 -46 -18z"/>
<path d="M2962 1761 c-10 -6 7 -25 59 -69 l73 -62 72 0 c40 0 75 4 79 9 3 5
-27 37 -67 70 l-72 61 -65 0 c-36 0 -72 -4 -79 -9z"/>
<path d="M7032 1709 c-39 -33 -70 -65 -66 -70 3 -5 39 -9 79 -9 l75 0 67 57
c38 31 70 58 73 60 13 11 -33 23 -90 23 -65 0 -65 -1 -138 -61z"/>
<path d="M6078 1744 c-56 -30 -28 -84 42 -84 39 0 36 -24 -3 -28 -37 -4 -36
-32 1 -32 28 0 72 35 72 57 0 22 -32 43 -66 43 -40 0 -45 16 -8 30 14 6 22 14
19 20 -8 14 -25 12 -57 -6z"/>
<path d="M3335 1693 c9 -74 20 -90 99 -147 85 -60 98 -66 92 -35 -28 135 -22
125 -106 184 -43 30 -81 55 -85 55 -4 0 -4 -26 0 -57z"/>
<path d="M4104 1739 c-53 -19 -73 -104 -32 -133 46 -33 104 -8 122 50 16 51
-40 102 -90 83z m54 -55 c2 -11 -6 -31 -16 -44 -36 -44 -71 0 -39 50 15 26 51
22 55 -6z"/>
<path d="M6810 1709 c-86 -63 -98 -77 -110 -135 -18 -88 -14 -90 70 -34 41 27
80 60 87 74 16 30 29 136 17 135 -5 0 -34 -19 -64 -40z"/>
<path d="M4383 1623 c-21 -8 -15 -43 13 -77 23 -27 25 -31 10 -34 -10 -2 -26
4 -36 13 -25 22 -38 0 -14 -26 24 -26 80 -26 94 1 12 22 8 33 -23 67 -24 27
-15 43 14 25 16 -10 20 -10 26 4 10 27 -43 44 -84 27z"/>
<path d="M5720 1610 c-11 -6 -17 -28 -18 -76 -2 -37 -5 -71 -9 -76 -3 -6 5 -8
18 -6 15 2 24 10 24 21 0 30 28 40 45 16 15 -19 50 -18 50 2 0 7 -90 130 -94
129 -1 0 -8 -5 -16 -10z m30 -70 c0 -5 -4 -10 -10 -10 -5 0 -10 5 -10 10 0 6
5 10 10 10 6 0 10 -4 10 -10z"/>
<path d="M4528 1519 c-10 -40 -16 -75 -14 -77 11 -10 99 -6 103 6 3 8 -6 12
-26 12 -24 0 -31 4 -31 20 0 17 5 19 25 14 19 -5 25 -2 25 10 0 9 -6 16 -14
16 -18 0 -29 16 -21 30 3 6 15 6 30 0 16 -6 27 -6 31 1 10 16 -7 27 -51 34
l-40 7 -17 -73z"/>
<path d="M3257 1566 c-32 -6 -59 -15 -60 -21 0 -5 35 -34 78 -63 64 -44 84
-53 109 -48 17 2 50 8 74 11 23 4 42 10 42 14 0 10 -133 99 -163 110 -12 4
-48 2 -80 -3z"/>
<path d="M3570 1568 c0 -6 7 -38 17 -71 13 -49 22 -63 53 -82 74 -47 139 -80
144 -74 4 3 -3 35 -14 71 -22 70 -24 73 -133 135 -66 37 -67 37 -67 21z"/>
<path d="M6561 1537 c-41 -23 -82 -53 -92 -67 -21 -28 -46 -116 -37 -125 10
-10 158 75 173 99 18 29 45 125 37 130 -4 2 -41 -14 -81 -37z"/>
<path d="M5515 1561 c-20 -5 -29 -12 -26 -22 2 -8 9 -40 15 -71 9 -52 12 -58
34 -58 21 0 23 3 17 30 -8 36 7 40 23 5 12 -26 27 -31 52 -15 13 8 11 12 -7
30 -17 15 -21 27 -16 50 10 53 -17 68 -92 51z m53 -44 c2 -10 -3 -17 -11 -17
-16 0 -30 24 -19 34 10 10 27 1 30 -17z"/>
<path d="M6792 1519 c-40 -28 -72 -54 -72 -59 0 -11 127 -33 143 -24 61 33
156 101 154 109 -4 13 -48 22 -108 24 -39 1 -55 -6 -117 -50z"/>
<path d="M5367 1541 c-21 -3 -38 -8 -38 -11 -1 -3 2 -35 6 -72 l7 -68 42 0
c22 0 47 4 55 9 22 14 3 31 -29 24 -23 -4 -30 -2 -30 11 0 9 8 16 20 16 14 0
20 7 20 21 0 18 -4 20 -25 15 -18 -5 -25 -2 -25 8 0 9 12 16 28 18 15 2 27 9
27 17 0 18 -10 20 -58 12z"/>
<path d="M4813 1470 c-5 -39 -7 -73 -4 -75 3 -1 26 -5 51 -6 35 -3 45 -1 45
11 0 9 -10 15 -25 15 -15 0 -26 7 -28 18 -3 13 2 16 19 15 15 -2 24 3 27 15 2
12 -3 17 -17 17 -12 0 -21 6 -21 16 0 12 7 14 31 9 26 -6 30 -4 27 12 -2 14
-14 19 -49 21 l-46 3 -10 -71z"/>
<path d="M5887 1534 c-8 -9 11 -44 23 -44 6 0 10 11 10 25 0 23 -18 34 -33 19z"/>
<path d="M4998 1519 c-30 -17 -22 -55 17 -79 40 -24 47 -46 13 -36 -40 12 -53
11 -53 -4 0 -8 14 -18 32 -23 25 -8 38 -6 58 7 36 23 32 53 -10 77 -40 24 -47
44 -11 35 28 -7 46 12 25 25 -19 12 -50 11 -71 -2z"/>
<path d="M5168 1523 c-15 -4 -18 -16 -18 -79 0 -73 0 -74 25 -74 22 0 25 4 23
28 -2 22 1 28 22 30 34 5 50 20 50 48 0 39 -48 61 -102 47z m59 -39 c8 -21
-13 -42 -28 -27 -13 13 -5 43 11 43 6 0 13 -7 17 -16z"/>
<path d="M3830 1419 c0 -18 31 -101 44 -118 12 -15 151 -81 172 -81 20 0 17
18 -14 80 -24 49 -34 58 -92 86 -87 42 -110 48 -110 33z"/>
<path d="M6294 1396 c-40 -17 -79 -37 -87 -44 -15 -13 -63 -130 -56 -136 2 -2
44 13 93 32 l89 36 28 64 c44 97 43 97 -67 48z"/>
<path d="M3503 1383 c-29 -9 -53 -19 -53 -22 0 -7 130 -82 162 -94 21 -8 140
24 145 39 5 15 -148 94 -179 93 -12 0 -47 -8 -75 -16z"/>
<path d="M6528 1357 c-43 -23 -78 -45 -78 -49 0 -4 30 -17 68 -28 l67 -21 85
44 c46 25 86 49 88 55 3 11 -92 42 -130 42 -12 -1 -58 -20 -100 -43z"/>
<path d="M4092 1303 c25 -57 63 -116 81 -127 29 -19 166 -60 174 -52 6 5 -37
95 -59 122 -8 11 -164 64 -188 64 -6 0 -10 -3 -8 -7z"/>
<path d="M6011 1281 l-84 -26 -35 -63 c-19 -35 -31 -66 -28 -69 4 -4 48 6 99
23 l92 30 32 59 c18 33 33 63 33 68 0 11 -17 7 -109 -22z"/>
<path d="M3791 1236 c-30 -12 -56 -26 -57 -31 -5 -14 146 -75 182 -74 36 0
116 30 121 45 4 11 -154 85 -179 83 -7 0 -37 -11 -67 -23z"/>
<path d="M6253 1223 c-45 -21 -81 -42 -79 -48 1 -5 31 -20 65 -33 l63 -22 61
26 c34 14 74 30 90 36 38 14 34 26 -20 49 -77 33 -92 32 -180 -8z"/>
<path d="M4401 1168 c17 -29 36 -58 42 -65 13 -13 197 -57 205 -49 4 5 -35 75
-63 110 -9 12 -44 26 -97 37 -124 28 -123 28 -87 -33z"/>
<path d="M5721 1201 c-74 -17 -76 -18 -118 -76 -24 -32 -40 -62 -35 -67 4 -4
50 3 102 15 l95 22 37 55 c20 30 37 58 37 63 1 11 -35 7 -118 -12z"/>
<path d="M4660 1153 c0 -4 22 -32 48 -61 l47 -53 87 -10 c48 -6 94 -9 102 -7
17 3 -65 109 -93 119 -28 11 -191 21 -191 12z"/>
<path d="M5420 1150 c-61 -7 -67 -10 -112 -59 -26 -29 -48 -57 -48 -63 0 -7
24 -8 73 -4 129 12 133 14 177 70 22 29 40 56 40 59 0 8 -40 7 -130 -3z"/>
<path d="M4073 1110 c-29 -17 -53 -34 -53 -38 0 -4 43 -20 96 -34 l95 -27 65
32 c35 17 64 34 64 37 0 9 -166 60 -193 60 -12 0 -46 -14 -74 -30z"/>
<path d="M5990 1124 c-19 -7 -54 -18 -78 -24 -23 -6 -40 -15 -37 -21 4 -5 33
-23 66 -40 l60 -30 95 27 c55 16 93 32 91 38 -6 19 -101 66 -132 65 -16 -1
-46 -7 -65 -15z"/>
<path d="M5034 1046 c-70 -70 -26 -175 74 -176 60 0 102 41 102 100 0 52 -13
76 -50 95 -49 25 -88 19 -126 -19z"/>
<path d="M4387 1024 c-62 -39 -69 -51 -34 -59 153 -34 169 -34 236 11 29 20
49 40 45 44 -9 8 -149 40 -176 40 -8 0 -39 -16 -71 -36z"/>
<path d="M5655 1043 c-38 -8 -74 -18 -79 -23 -12 -12 104 -83 134 -82 52 1
171 34 167 45 -5 18 -108 77 -132 76 -11 -1 -51 -8 -90 -16z"/>
<path d="M4734 997 c-41 -24 -98 -77 -91 -84 9 -8 97 -21 153 -22 32 -1 51 7
95 39 30 23 55 45 57 50 6 18 -187 34 -214 17z"/>
<path d="M5380 1004 c-14 -3 -44 -7 -67 -10 -24 -3 -43 -9 -43 -13 0 -4 24
-27 53 -50 l52 -43 83 6 c132 11 135 14 68 69 -58 47 -73 51 -146 41z"/>
</g>
</svg>
